<?xml version="1.0" encoding="UTF-8"?>
<svg version="1.1" xmlns="http://www.w3.org/2000/svg" width="277" height="86">
<path d="M0 0 C1.387291 0.98287776 2.76294739 1.98243541 4.125 3 C4.87007813 3.495 5.61515625 3.99 6.3828125 4.5 C6.95773438 4.995 7.53265625 5.49 8.125 6 C8.125 6.99 8.125 7.98 8.125 9 C8.72957031 9.21914063 9.33414063 9.43828125 9.95703125 9.6640625 C12.85986568 11.45283615 13.48982049 13.26232202 14.8125 16.375 C15.22886719 17.33148437 15.64523438 18.28796875 16.07421875 19.2734375 C19.82782073 29.01326717 19.48481314 41.04236938 15.37890625 50.61328125 C10.13138402 60.60155565 2.14303016 68.42480273 -8.515625 72.30859375 C-19.43917371 75.50969991 -30.309696 74.78828934 -40.49609375 69.6875 C-42.65347647 68.50279061 -44.77508698 67.28328018 -46.875 66 C-46.875 65.34 -46.875 64.68 -46.875 64 C-47.473125 63.7421875 -48.07125 63.484375 -48.6875 63.21875 C-55.44720184 59.4526304 -58.63939451 51.02782649 -60.875 44 C-63.62183752 32.41629704 -61.53197365 21.83269604 -55.6328125 11.64453125 C-49.71368857 2.73953814 -42.32849545 -1.39378068 -32.625 -5.3125 C-20.95492302 -7.45201411 -10.00547182 -6.54016207 0 0 Z M-48.875 14 C-53.99889955 22.02665917 -55.81254044 29.52718884 -54.875 39 C-53.80361708 42.78960769 -52.43979284 46.38840224 -50.875 50 C-50.215 50 -49.555 50 -48.875 50 C-48.62331055 49.30438965 -48.37162109 48.6087793 -48.11230469 47.89208984 C-46.95808748 44.71667009 -45.79167295 41.54586346 -44.625 38.375 C-44.22925781 37.28058594 -43.83351563 36.18617187 -43.42578125 35.05859375 C-38.68157479 22.22590414 -38.68157479 22.22590414 -34.0625 18.5625 C-30.7048416 17.69910213 -28.21538557 18.16490361 -24.875 19 C-20.78376451 22.18735788 -19.37006519 26.04010465 -17.625 30.75 C-17.356875 31.44738281 -17.08875 32.14476563 -16.8125 32.86328125 C-16.15714041 34.57189733 -15.51474732 36.28547719 -14.875 38 C-12.85765354 34.97398032 -11.75265478 32.27385818 -10.4921875 28.87109375 C-10.04746094 27.67162109 -9.60273437 26.47214844 -9.14453125 25.23632812 C-8.91588379 24.61314697 -8.68723633 23.98996582 -8.45166016 23.34790039 C-7.75050622 21.43887827 -7.04172575 19.53281437 -6.33203125 17.62695312 C-3.91559611 11.95789246 -3.91559611 11.95789246 -2.875 6 C-4.12235567 5.3490741 -5.37301832 4.70448331 -6.625 4.0625 C-7.32109375 3.70285156 -8.0171875 3.34320313 -8.734375 2.97265625 C-23.53177444 -3.75097962 -38.83228278 2.55059012 -48.875 14 Z M5.125 17 C4.83778076 17.76143311 4.55056152 18.52286621 4.25463867 19.30737305 C2.94556185 22.76931811 1.62911328 26.22841449 0.3125 29.6875 C-0.13931641 30.88568359 -0.59113281 32.08386719 -1.05664062 33.31835938 C-1.49814453 34.47529297 -1.93964844 35.63222656 -2.39453125 36.82421875 C-2.79776611 37.88729248 -3.20100098 38.95036621 -3.61645508 40.0456543 C-6.76952407 47.44726204 -6.76952407 47.44726204 -9.875 49 C-11.8984375 49.23828125 -11.8984375 49.23828125 -14.25 49.3125 C-15.02085938 49.34988281 -15.79171875 49.38726562 -16.5859375 49.42578125 C-19.8430712 48.81993215 -20.83541771 47.5931832 -22.875 45 C-24.06820207 42.58075544 -25.13116767 40.24472198 -26.125 37.75 C-26.393125 37.1003125 -26.66125 36.450625 -26.9375 35.78125 C-27.59225016 34.19114246 -28.23487282 32.59605042 -28.875 31 C-29.535 31 -30.195 31 -30.875 31 C-32.33150002 34.76671848 -33.7735025 38.5386362 -35.20239258 42.31591797 C-35.69031413 43.59964914 -36.18214597 44.88190126 -36.67797852 46.16259766 C-37.39068528 48.00548437 -38.08812185 49.85425361 -38.78515625 51.703125 C-39.42142944 53.36843262 -39.42142944 53.36843262 -40.07055664 55.06738281 C-40.86861059 57.97670727 -41.07074565 59.26997806 -39.875 62 C-38.17455369 63.31073904 -38.17455369 63.31073904 -36.0625 64.1875 C-35.37542969 64.51105469 -34.68835938 64.83460937 -33.98046875 65.16796875 C-25.44161344 68.54232159 -15.95634586 67.90441073 -7.546875 64.453125 C1.05909433 59.77268554 7.67770862 52.51668066 10.7265625 43.15234375 C12.44601131 33.86394868 11.43772758 25.35590969 7.125 17 C6.465 17 5.805 17 5.125 17 Z " fill="#000000" transform="translate(69.875,9)"/>
<path d="M0 0 C1.32 0 2.64 0 4 0 C4 1.32 4 2.64 4 4 C5.98 4 7.96 4 10 4 C10.33 5.65 10.66 7.3 11 9 C8.69 9 6.38 9 4 9 C4.33 11.64 4.66 14.28 5 17 C6.98 17 8.96 17 11 17 C11.33 17.99 11.66 18.98 12 20 C9.1528258 21.93607846 7.84582804 21.98954766 4.3125 21.75 C3.219375 21.5025 2.12625 21.255 1 21 C-0.17426264 18.65147472 -0.11508173 17.26225935 -0.09765625 14.6484375 C-0.09443359 13.79765625 -0.09121094 12.946875 -0.08789062 12.0703125 C-0.07951172 11.18085937 -0.07113281 10.29140625 -0.0625 9.375 C-0.05798828 8.4778125 -0.05347656 7.580625 -0.04882812 6.65625 C-0.03702591 4.43743352 -0.02056155 2.21874982 0 0 Z " fill="#000000" transform="translate(150,26)"/>
<path d="M0 0 C0.66 -0.00773437 1.32 -0.01546875 2 -0.0234375 C4.80332312 0.53503703 6.05642443 1.25512665 8 3.375 C8.390625 6.73046875 8.390625 6.73046875 8.25 10.5625 C8.21390625 11.83480469 8.1778125 13.10710938 8.140625 14.41796875 C8.07101563 15.88169922 8.07101563 15.88169922 8 17.375 C6.68 17.375 5.36 17.375 4 17.375 C3.93941406 16.67632812 3.87882812 15.97765625 3.81640625 15.2578125 C3.73261719 14.34773438 3.64882812 13.43765625 3.5625 12.5 C3.48128906 11.59507813 3.40007812 10.69015625 3.31640625 9.7578125 C3.13010715 7.36389139 3.13010715 7.36389139 2 5.375 C0.68 5.375 -0.64 5.375 -2 5.375 C-3.21693876 7.80887753 -3.31959896 9.79338846 -3.5625 12.5 C-3.64628906 13.41007812 -3.73007813 14.32015625 -3.81640625 15.2578125 C-3.87699219 15.95648438 -3.93757813 16.65515625 -4 17.375 C-5.32 17.375 -6.64 17.375 -8 17.375 C-8.10794277 15.10520335 -8.18556176 12.83394804 -8.25 10.5625 C-8.29640625 9.29792969 -8.3428125 8.03335938 -8.390625 6.73046875 C-8 3.375 -8 3.375 -6.234375 1.44921875 C-3.93717975 0.34479796 -2.52986148 -0.02964681 0 0 Z " fill="#000000" transform="translate(107,29.625)"/>
<path d="M0 0 C2.39446415 1.43869064 4.00202012 3.00202012 6 5 C6.28875 4.360625 6.5775 3.72125 6.875 3.0625 C8 1 8 1 10 0 C12.6723621 -0.13415472 15.32250488 -0.04318541 18 0 C18.33 1.32 18.66 2.64 19 4 C16 5 16 5 12 6 C11.67 9.63 11.34 13.26 11 17 C9.35 17 7.7 17 6 17 C5.67 16.01 5.34 15.02 5 14 C4.175 14.680625 3.35 15.36125 2.5 16.0625 C-0.82898618 18.271306 -3.28471417 18.41504518 -7.1640625 17.671875 C-10.28873568 16.52837758 -11.46367348 14.88061222 -13 12 C-13.67454401 7.37455536 -12.76861776 4.72698544 -10 1 C-6.77518921 -0.6124054 -3.48584376 -0.60679502 0 0 Z M-6.75 5.1875 C-8.2842979 6.99648167 -8.2842979 6.99648167 -7.75 9.625 C-7.22254355 11.9312407 -7.22254355 11.9312407 -6 13 C-3.54207971 13.33343551 -3.54207971 13.33343551 -1 13 C1.264384 10.30844799 1.264384 10.30844799 0.75 7.9375 C0.07467282 5.80523025 0.07467282 5.80523025 -2 4 C-4.9387397 3.71924929 -4.9387397 3.71924929 -6.75 5.1875 Z " fill="#000000" transform="translate(129,30)"/>
<path d="M0 0 C0.99 0.66 1.98 1.32 3 2 C3.375 5.5 3.375 5.5 3 9 C-0.44450737 11.29633824 -2.93812283 11.54016485 -7 12 C-3.846632 12.70074844 -1.27275026 13 2 13 C2.33 13.99 2.66 14.98 3 16 C-0.41748222 18.10306598 -3.02085525 18.40603518 -7 18 C-11.63235294 15.73529412 -11.63235294 15.73529412 -13 13 C-13.68571429 6.02857143 -13.68571429 6.02857143 -11 2 C-6.8976444 -0.73490373 -4.86581934 -0.5493667 0 0 Z M-6 4 C-6.66 5.32 -7.32 6.64 -8 8 C-6.02 7.67 -4.04 7.34 -2 7 C-2 6.01 -2 5.02 -2 4 C-3.32 4 -4.64 4 -6 4 Z " fill="#000000" transform="translate(174,30)"/>
<path d="M0 0 C3.3 0 6.6 0 10 0 C9.67 0.66 9.34 1.32 9 2 C6.69 2 4.38 2 2 2 C2 3.65 2 5.3 2 7 C3.98 7 5.96 7 8 7 C7.67 7.66 7.34 8.32 7 9 C5.02 9 3.04 9 1 9 C1 10.65 1 12.3 1 14 C3.31 14.33 5.62 14.66 8 15 C7.67 15.66 7.34 16.32 7 17 C3.7 17 0.4 17 -3 17 C-2.01 11.39 -1.02 5.78 0 0 Z " fill="#000000" transform="translate(182,30)"/>
<path d="M0 0 C1.859375 0.21484375 1.859375 0.21484375 4 1 C5.7534633 3.86290766 6.76220486 6.86130519 8 10 C8.66 6.7 9.32 3.4 10 0 C10.99 0 11.98 0 13 0 C12.69188262 2.45895618 12.37871012 4.91708307 12.0625 7.375 C11.93198242 8.42300781 11.93198242 8.42300781 11.79882812 9.4921875 C11.11328125 14.7734375 11.11328125 14.7734375 10 17 C9.01 17 8.02 17 7 17 C5.68 14.03 4.36 11.06 3 8 C2.01 10.97 1.02 13.94 0 17 C-0.66 17 -1.32 17 -2 17 C-1.03644647 5.47835991 -1.03644647 5.47835991 0 0 Z " fill="#000000" transform="translate(194,30)"/>
<path d="M0 0 C3.3 0 6.6 0 10 0 C10 0.66 10 1.32 10 2 C7.36 2 4.72 2 2 2 C2 3.65 2 5.3 2 7 C3.98 7 5.96 7 8 7 C8 7.66 8 8.32 8 9 C5.69 9 3.38 9 1 9 C1 10.98 1 12.96 1 15 C3.31 15 5.62 15 8 15 C7.67 15.66 7.34 16.32 7 17 C4.03 17 1.06 17 -2 17 C-1.85848172 14.9163691 -1.71162064 12.83310062 -1.5625 10.75 C-1.48128906 9.58984375 -1.40007812 8.4296875 -1.31640625 7.234375 C-1 4 -1 4 0 0 Z " fill="#000000" transform="translate(211,30)"/>
<path d="M0 0 C6.8359375 -0.1953125 6.8359375 -0.1953125 9 0 C11 2 11 2 11.25 4.5 C11 7 11 7 9 9 C8.83312552 11.58354218 8.83312552 11.58354218 9 14 C9.66 14.33 10.32 14.66 11 15 C10.67 15.99 10.34 16.98 10 18 C8.0625 17.375 8.0625 17.375 6 16 C5.25 12.875 5.25 12.875 5 10 C4.01 10.33 3.02 10.66 2 11 C1.67 12.98 1.34 14.96 1 17 C0.01 17 -0.98 17 -2 17 C-1.34 11.39 -0.68 5.78 0 0 Z M3 2 C2.67 3.98 2.34 5.96 2 8 C3.65 7.67 5.3 7.34 7 7 C7.33 5.68 7.66 4.36 8 3 C6.35 2.67 4.7 2.34 3 2 Z " fill="#000000" transform="translate(223,30)"/>
<path d="M0 0 C2.05078125 0.03255208 4.1015625 0.06510417 6.15234375 0.09765625 C6.48234375 1.74765625 6.81234375 3.39765625 7.15234375 5.09765625 C6.16234375 5.09765625 5.17234375 5.09765625 4.15234375 5.09765625 C3.82234375 4.43765625 3.49234375 3.77765625 3.15234375 3.09765625 C1.1769763 3.44552333 1.1769763 3.44552333 -0.84765625 4.09765625 C-1.99118541 6.38471456 -1.95100064 7.69030387 -1.91015625 10.22265625 C-1.88953125 11.50140625 -1.86890625 12.78015625 -1.84765625 14.09765625 C-0.19765625 14.42765625 1.45234375 14.75765625 3.15234375 15.09765625 C3.15234375 13.77765625 3.15234375 12.45765625 3.15234375 11.09765625 C2.16234375 11.09765625 1.17234375 11.09765625 0.15234375 11.09765625 C0.15234375 10.10765625 0.15234375 9.11765625 0.15234375 8.09765625 C2.13234375 8.09765625 4.11234375 8.09765625 6.15234375 8.09765625 C5.82234375 11.06765625 5.49234375 14.03765625 5.15234375 17.09765625 C-1.00495962 18.40016273 -1.00495962 18.40016273 -4.28515625 17.22265625 C-6.81653772 13.77997745 -6.46910181 10.21653959 -5.84765625 6.09765625 C-3.00188825 0.15866217 -3.00188825 0.15866217 0 0 Z " fill="#000000" transform="translate(241.84765625,29.90234375)"/>
<path d="M0 0 C0.66 0 1.32 0 2 0 C1.85786703 1.89611434 1.71113093 3.79188394 1.5625 5.6875 C1.48128906 6.74324219 1.40007812 7.79898438 1.31640625 8.88671875 C1.03548319 11.65086297 0.59843148 14.28945741 0 17 C-0.99 17 -1.98 17 -3 17 C-2.69268013 14.35346869 -2.37940678 11.707885 -2.0625 9.0625 C-1.97548828 8.30775391 -1.88847656 7.55300781 -1.79882812 6.77539062 C-1.11328125 1.11328125 -1.11328125 1.11328125 0 0 Z " fill="#000000" transform="translate(253,30)"/>
<path d="M0 0 C1.32 0 2.64 0 4 0 C5.2982126 5.76081841 6.25706972 11.08739655 6 17 C5.34 17 4.68 17 4 17 C3.67 15.35 3.34 13.7 3 12 C0.55519921 12.18828772 0.55519921 12.18828772 -2 13 C-3.36020151 14.96758273 -3.36020151 14.96758273 -4 17 C-4.99 17 -5.98 17 -7 17 C-5.1668733 11.00067626 -2.92678249 5.55079437 0 0 Z M1 4 C0.34 5.98 -0.32 7.96 -1 10 C0.32 10 1.64 10 3 10 C2.67 8.02 2.34 6.04 2 4 C1.67 4 1.34 4 1 4 Z " fill="#000000" transform="translate(262,30)"/>
<path d="M0 0 C0.33 0.66 0.66 1.32 1 2 C5.29 2 9.58 2 14 2 C15 8 15 8 15 10 C14.34 10 13.68 10 13 10 C12.67 9.34 12.34 8.68 12 8 C11.67 8.66 11.34 9.32 11 10 C10.34 10 9.68 10 9 10 C9 7.69 9 5.38 9 3 C8.01 3 7.02 3 6 3 C6 5.31 6 7.62 6 10 C5.67 10 5.34 10 5 10 C5 7.69 5 5.38 5 3 C3.02 3 1.04 3 -1 3 C-1 3.66 -1 4.32 -1 5 C-0.01 5 0.98 5 2 5 C2 5.66 2 6.32 2 7 C1.01 7 0.02 7 -1 7 C-1 7.66 -1 8.32 -1 9 C-0.01 9.33 0.98 9.66 2 10 C-1.3 10 -4.6 10 -8 10 C-8 7.36 -8 4.72 -8 2 C-7.34 2 -6.68 2 -6 2 C-6 4.31 -6 6.62 -6 9 C-5.01 9 -4.02 9 -3 9 C-3.061875 7.88625 -3.12375 6.7725 -3.1875 5.625 C-3.125625 4.42875 -3.06375 3.2325 -3 2 C-2.01 1.34 -1.02 0.68 0 0 Z M11 3 C12 5 12 5 12 5 Z " fill="#000000" transform="translate(169,50)"/>
<path d="M0 0 C0.66 0 1.32 0 2 0 C2.33 1.98 2.66 3.96 3 6 C3.33 6 3.66 6 4 6 C4.33 4.02 4.66 2.04 5 0 C7.31 0 9.62 0 12 0 C12 2.66666667 12 5.33333333 12 8 C11.195625 7.814375 10.39125 7.62875 9.5625 7.4375 C8.716875 7.293125 7.87125 7.14875 7 7 C6.67 7.33 6.34 7.66 6 8 C4.33382885 8.04063832 2.66611905 8.042721 1 8 C-0.35439668 5.29120665 -0.06501451 2.99066732 0 0 Z M7 3 C7 3.99 7 4.98 7 6 C8.32 5.67 9.64 5.34 11 5 C9.68 4.34 8.36 3.68 7 3 Z " fill="#000000" transform="translate(98,52)"/>
<path d="M0 0 C0.66 0 1.32 0 2 0 C2 2.64 2 5.28 2 8 C1.34 8 0.68 8 0 8 C0 5.36 0 2.72 0 0 Z " fill="#000000" transform="translate(111,52)"/>
<path d="M0 0 C3 1 3 1 4 3 C4.66 2.01 5.32 1.02 6 0 C6 2.64 6 5.28 6 8 C5.01 7.34 4.02 6.68 3 6 C2.67 6.66 2.34 7.32 2 8 C1.34 8 0.68 8 0 8 C0 5.36 0 2.72 0 0 Z " fill="#000000" transform="translate(114,52)"/>
<path d="M0 0 C0.99 0.33 1.98 0.66 3 1 C4.1875 4.5625 4.1875 4.5625 5 8 C4.34 8 3.68 8 3 8 C3 7.34 3 6.68 3 6 C2.01 6 1.02 6 0 6 C0 6.66 0 7.32 0 8 C-0.66 8 -1.32 8 -2 8 C-1.47731534 5.23723823 -0.89130413 2.6739124 0 0 Z " fill="#000000" transform="translate(123,52)"/>
<path d="M0 0 C0.33 0.99 0.66 1.98 1 3 C2.32 3 3.64 3 5 3 C5.33 2.01 5.66 1.02 6 0 C6 2.64 6 5.28 6 8 C5.67 7.01 5.34 6.02 5 5 C3.68 5 2.36 5 1 5 C0.67 5.99 0.34 6.98 0 8 C0 5.36 0 2.72 0 0 Z " fill="#000000" transform="translate(131,52)"/>
<path d="M0 0 C1.99954746 -0.04254356 4.00041636 -0.04080783 6 0 C7 1 7 1 7.1875 3.4375 C7 6 7 6 5 8 C2.375 8.125 2.375 8.125 0 8 C0 5.36 0 2.72 0 0 Z M2 1 C2 2.98 2 4.96 2 7 C2.99 6.67 3.98 6.34 5 6 C5 4.68 5 3.36 5 2 C4.01 1.67 3.02 1.34 2 1 Z " fill="#000000" transform="translate(141,52)"/>
<path d="M0 0 C2.475 0.495 2.475 0.495 5 1 C5 3.31 5 5.62 5 8 C4.34 7.67 3.68 7.34 3 7 C3 6.34 3 5.68 3 5 C2.34 5 1.68 5 1 5 C0.67 5.99 0.34 6.98 0 8 C0 5.36 0 2.72 0 0 Z M1 1 C1 1.66 1 2.32 1 3 C1.66 3 2.32 3 3 3 C3 2.34 3 1.68 3 1 C2.34 1 1.68 1 1 1 Z " fill="#000000" transform="translate(149,52)"/>
<path d="M0 0 C1.65 0 3.3 0 5 0 C4.01 0.33 3.02 0.66 2 1 C2 1.66 2 2.32 2 3 C2.66 3 3.32 3 4 3 C4 3.66 4 4.32 4 5 C3.34 5 2.68 5 2 5 C2 5.66 2 6.32 2 7 C2.99 7.33 3.98 7.66 5 8 C3.35 8 1.7 8 0 8 C0 5.36 0 2.72 0 0 Z " fill="#000000" transform="translate(155,52)"/>
<path d="M0 0 C1.98 0 3.96 0 6 0 C6 0.66 6 1.32 6 2 C4.68 2 3.36 2 2 2 C1.67 3.32 1.34 4.64 1 6 C2.98 6 4.96 6 7 6 C7.33 4.02 7.66 2.04 8 0 C8.99 0.33 9.98 0.66 11 1 C12.1875 4.5625 12.1875 4.5625 13 8 C12.34 8 11.68 8 11 8 C11 7.34 11 6.68 11 6 C10.01 6 9.02 6 8 6 C8 6.66 8 7.32 8 8 C4.625 8.125 4.625 8.125 1 8 C0.34 7.34 -0.32 6.68 -1 6 C-0.625 2.875 -0.625 2.875 0 0 Z " fill="#000000" transform="translate(188,52)"/>
<path d="M0 0 C1.65 0 3.3 0 5 0 C5 2.64 5 5.28 5 8 C3.35 8 1.7 8 0 8 C0 5.36 0 2.72 0 0 Z M2 1 C3 3 3 3 3 3 Z M2 4 C2.33 4.99 2.66 5.98 3 7 C3 6.01 3 5.02 3 4 C2.67 4 2.34 4 2 4 Z " fill="#000000" transform="translate(204,52)"/>
<path d="M0 0 C1.65 0 3.3 0 5 0 C4.01 0.33 3.02 0.66 2 1 C2 1.66 2 2.32 2 3 C2.99 3 3.98 3 5 3 C5 3.66 5 4.32 5 5 C4.01 5 3.02 5 2 5 C2 5.66 2 6.32 2 7 C2.99 7.33 3.98 7.66 5 8 C3.35 8 1.7 8 0 8 C0 5.36 0 2.72 0 0 Z " fill="#000000" transform="translate(210,52)"/>
<path d="M0 0 C0.66 0 1.32 0 2 0 C2 2.31 2 4.62 2 7 C2.99 7.33 3.98 7.66 5 8 C3.35 8 1.7 8 0 8 C0 5.36 0 2.72 0 0 Z " fill="#000000" transform="translate(216,52)"/>
<path d="M0 0 C2.5625 0.1875 2.5625 0.1875 4.5625 2.1875 C4.00694444 6.74305556 4.00694444 6.74305556 2.5625 8.1875 C0.0625 8.3125 0.0625 8.3125 -2.4375 8.1875 C-3.4375 7.1875 -3.4375 7.1875 -3.5625 4.1875 C-3.39891479 0.26145498 -3.39891479 0.26145498 0 0 Z M-0.4375 1.1875 C-1.0975 2.5075 -1.7575 3.8275 -2.4375 5.1875 C-0.9525 6.1775 -0.9525 6.1775 0.5625 7.1875 C1.2225 6.8575 1.8825 6.5275 2.5625 6.1875 C2.5625 4.8675 2.5625 3.5475 2.5625 2.1875 C1.5725 1.8575 0.5825 1.5275 -0.4375 1.1875 Z " fill="#000000" transform="translate(224.4375,51.8125)"/>
<path d="M0 0 C0.66 0 1.32 0 2 0 C2.33 0.66 2.66 1.32 3 2 C4.32 1.34 5.64 0.68 7 0 C7 2.64 7 5.28 7 8 C6.34 7.34 5.68 6.68 5 6 C3.02 6.66 1.04 7.32 -1 8 C-0.67 5.36 -0.34 2.72 0 0 Z " fill="#000000" transform="translate(233,52)"/>
<path d="M0 0 C2.5625 0.1875 2.5625 0.1875 4.5625 2.1875 C4.00694444 6.74305556 4.00694444 6.74305556 2.5625 8.1875 C0.0625 8.3125 0.0625 8.3125 -2.4375 8.1875 C-3.4375 7.1875 -3.4375 7.1875 -3.5625 4.1875 C-3.39891479 0.26145498 -3.39891479 0.26145498 0 0 Z M-0.4375 1.1875 C-1.0975 2.5075 -1.7575 3.8275 -2.4375 5.1875 C-0.9525 6.1775 -0.9525 6.1775 0.5625 7.1875 C1.2225 6.8575 1.8825 6.5275 2.5625 6.1875 C2.5625 4.8675 2.5625 3.5475 2.5625 2.1875 C1.5725 1.8575 0.5825 1.5275 -0.4375 1.1875 Z " fill="#000000" transform="translate(244.4375,51.8125)"/>
<path d="M0 0 C1.32 0.99 2.64 1.98 4 3 C4.33 2.01 4.66 1.02 5 0 C9.29 0 13.58 0 18 0 C17.01 0.33 16.02 0.66 15 1 C15 1.66 15 2.32 15 3 C15.66 3 16.32 3 17 3 C17 3.66 17 4.32 17 5 C16.34 5 15.68 5 15 5 C15 5.66 15 6.32 15 7 C15.99 7.33 16.98 7.66 18 8 C16.35 8 14.7 8 13 8 C13 5.69 13 3.38 13 1 C12.01 1 11.02 1 10 1 C10 3.31 10 5.62 10 8 C9.67 8 9.34 8 9 8 C9 5.69 9 3.38 9 1 C8.01 1 7.02 1 6 1 C6 3.31 6 5.62 6 8 C5.34 8 4.68 8 4 8 C3.34 7.01 2.68 6.02 2 5 C1.34 5.99 0.68 6.98 0 8 C0 5.36 0 2.72 0 0 Z " fill="#000000" transform="translate(250,52)"/>
</svg>
