<?xml version="1.0" standalone="no"?>
<!DOCTYPE svg PUBLIC "-//W3C//DTD SVG 20010904//EN"
 "http://www.w3.org/TR/2001/REC-SVG-20010904/DTD/svg10.dtd">
<svg version="1.0" xmlns="http://www.w3.org/2000/svg"
 width="3573.000000pt" height="1368.000000pt" viewBox="0 0 3573.000000 1368.000000"
 preserveAspectRatio="xMidYMid meet">

<g transform="translate(0.000000,1368.000000) scale(0.100000,-0.100000)"
fill="#000000" stroke="none">
<path d="M6180 11680 c-394 -34 -755 -106 -1108 -221 -1223 -399 -2230 -1275
-2797 -2434 -237 -484 -380 -977 -452 -1555 -26 -208 -26 -830 0 -1040 105
-858 391 -1592 891 -2284 31 -44 36 -47 43 -30 4 10 69 190 144 399 l136 380
-30 50 c-17 27 -63 115 -103 195 -210 419 -340 859 -401 1350 -22 183 -25 692
-5 875 158 1424 1007 2629 2287 3246 1221 588 2690 519 3843 -181 53 -32 100
-56 104 -52 9 10 228 622 228 637 0 28 -423 244 -665 340 -382 152 -795 255
-1220 306 -193 24 -712 34 -895 19z"/>
<path d="M9122 10892 c-5 -15 -373 -1021 -816 -2237 -629 -1722 -813 -2215
-832 -2232 -29 -26 -63 -29 -103 -9 -24 13 -38 41 -96 193 -233 612 -496 1239
-629 1499 -147 289 -349 510 -579 634 -326 176 -759 169 -1072 -18 -212 -127
-397 -330 -506 -557 -143 -300 -698 -1764 -1484 -3922 l-118 -322 101 -113
c55 -62 116 -128 135 -146 l34 -33 16 43 c9 24 155 423 325 888 724 1977 1211
3259 1317 3469 96 191 276 363 455 434 96 38 186 50 319 44 252 -11 436 -117
617 -356 130 -171 372 -716 721 -1626 46 -121 103 -253 126 -294 85 -150 229
-272 339 -287 134 -18 299 103 397 291 23 44 1641 4452 1641 4470 0 5 -162
122 -237 173 l-61 42 -10 -28z"/>
<path d="M8751 8473 c-431 -1182 -801 -2185 -822 -2230 -80 -175 -214 -328
-338 -387 -61 -29 -74 -31 -171 -31 -99 0 -109 2 -174 34 -117 57 -252 204
-330 358 -14 29 -68 162 -120 295 -222 574 -425 1063 -545 1313 -173 358 -384
538 -656 560 -160 13 -318 -37 -447 -140 -82 -66 -184 -196 -230 -294 -83
-176 -367 -912 -730 -1886 -348 -935 -928 -2519 -928 -2534 0 -5 43 -49 96
-96 77 -69 99 -84 105 -73 5 9 358 973 784 2144 481 1320 792 2158 818 2207
117 220 279 351 450 364 189 14 355 -100 507 -350 23 -38 88 -187 145 -330
143 -364 338 -839 441 -1074 173 -398 239 -509 374 -637 79 -74 146 -116 240
-148 55 -19 86 -23 195 -23 110 0 140 4 196 23 181 62 354 229 445 428 155
339 658 1669 1391 3679 118 325 232 638 254 697 l38 107 -98 85 c-54 47 -100
86 -102 86 -3 0 -357 -966 -788 -2147z"/>
<path d="M9830 10325 c-6 -16 -92 -250 -190 -520 -597 -1641 -1096 -2977
-1332 -3565 -165 -411 -214 -496 -366 -642 -134 -128 -260 -188 -438 -209
-165 -20 -335 15 -476 98 -121 71 -275 241 -357 393 -92 173 -314 691 -572
1340 -83 206 -169 409 -192 450 -56 100 -175 221 -250 255 -170 78 -365 -33
-489 -279 -16 -32 -378 -1015 -804 -2185 -426 -1169 -781 -2143 -789 -2163
l-15 -37 68 -54 c137 -109 226 -168 233 -155 4 7 366 999 804 2203 535 1470
805 2198 820 2214 31 32 89 32 120 -1 13 -13 93 -199 190 -442 279 -700 499
-1204 601 -1376 144 -241 384 -458 599 -541 165 -64 213 -72 415 -73 206 -1
285 13 441 79 235 99 492 348 614 594 147 297 630 1566 1450 3815 l196 538
-25 31 c-13 18 -74 84 -134 147 l-110 115 -12 -30z"/>
<path d="M10110 9522 c-74 -206 -136 -381 -138 -387 -1 -6 31 -69 73 -140 533
-912 688 -2004 430 -3037 -259 -1035 -922 -1929 -1843 -2487 -1021 -617 -2284
-750 -3422 -359 -261 90 -561 233 -810 386 l-145 90 -73 -207 c-41 -113 -93
-261 -117 -328 l-44 -123 107 -63 c904 -536 1957 -753 3012 -621 1368 171
2609 950 3372 2119 647 990 899 2196 702 3370 -123 738 -414 1422 -866 2036
-42 58 -83 111 -90 117 -10 8 -43 -72 -148 -366z"/>
<path d="M18910 8923 c-40 -21 -59 -38 -74 -68 -21 -39 -21 -52 -21 -975 0
-861 1 -940 18 -1000 46 -173 149 -306 288 -374 124 -60 181 -71 379 -71 159
0 184 3 271 27 128 36 210 70 285 119 l63 40 -86 142 c-47 78 -86 143 -88 145
-2 2 -22 -6 -46 -19 -205 -104 -463 -97 -571 18 -15 15 -37 51 -50 78 -23 50
-23 53 -26 533 l-3 482 370 0 369 0 23 68 c16 45 24 90 23 137 0 96 -23 142
-90 175 -49 25 -50 25 -371 28 l-323 3 -2 252 -3 252 -60 17 c-33 9 -96 17
-141 17 -69 1 -88 -3 -134 -26z"/>
<path d="M29915 8473 c-85 -18 -166 -49 -242 -94 -71 -42 -207 -175 -256 -250
-124 -191 -207 -445 -238 -730 -16 -150 -7 -393 20 -494 90 -343 348 -500 754
-456 183 20 431 95 448 136 8 19 129 798 129 830 0 13 -41 15 -319 15 l-319 0
-5 -32 c-3 -18 -9 -54 -13 -80 l-6 -48 226 0 226 0 0 -22 c0 -52 -83 -544 -93
-554 -40 -39 -239 -84 -369 -84 -252 0 -397 110 -465 351 -27 96 -24 383 5
539 75 400 231 671 448 776 75 37 84 39 196 42 92 3 129 0 173 -13 107 -34
175 -123 206 -270 7 -33 13 -61 14 -63 2 -2 41 7 89 19 l86 21 0 42 c0 63 -27
163 -62 228 -55 103 -144 163 -285 193 -87 19 -257 18 -348 -2z"/>
<path d="M13427 8449 c-138 -20 -278 -68 -385 -131 -77 -45 -219 -189 -265
-268 -47 -81 -83 -194 -97 -301 -6 -50 -10 -325 -10 -676 l0 -593 219 0 220 0
3 603 c4 588 4 603 25 667 65 191 184 286 391 311 97 12 224 -1 305 -31 142
-54 238 -184 267 -362 6 -37 10 -291 10 -625 l0 -563 221 0 220 0 -3 653 c-4
640 -4 653 -26 731 -92 319 -330 515 -706 581 -95 16 -292 18 -389 4z"/>
<path d="M15617 8445 c-239 -45 -436 -151 -588 -313 -300 -320 -352 -813 -128
-1201 132 -229 357 -393 647 -473 66 -18 105 -22 267 -22 175 0 198 2 287 26
391 107 671 396 750 777 29 139 21 358 -16 486 -83 281 -260 492 -521 621
-160 78 -271 105 -465 110 -110 2 -178 -1 -233 -11z m383 -394 c128 -40 252
-135 319 -246 197 -326 84 -775 -234 -929 -91 -44 -158 -59 -269 -59 -171 0
-297 51 -412 167 -225 225 -247 608 -51 872 76 103 219 190 350 214 76 13 222
4 297 -19z"/>
<path d="M17745 8453 c-86 -13 -204 -47 -268 -76 -186 -87 -297 -217 -359
-419 -22 -72 -22 -81 -26 -775 l-3 -703 220 0 220 0 3 638 c3 624 3 638 24
694 66 173 205 258 421 258 105 0 190 -15 297 -52 l89 -30 19 23 c41 53 68
123 68 173 -1 177 -171 266 -515 272 -88 1 -173 0 -190 -3z"/>
<path d="M20994 8445 c-225 -41 -395 -125 -547 -274 -183 -178 -281 -405 -294
-683 -26 -554 285 -951 818 -1044 129 -22 402 -14 544 16 166 35 397 123 420
160 3 6 -29 77 -72 159 l-78 149 -35 -15 c-223 -99 -311 -117 -538 -111 -135
4 -169 9 -239 32 -96 31 -187 89 -243 154 -46 54 -95 150 -105 205 l-7 37 268
0 c274 0 452 14 586 45 331 76 486 200 534 423 65 310 -115 596 -447 706 -161
54 -400 71 -565 41z m397 -354 c75 -29 132 -71 166 -123 24 -35 28 -54 31
-122 3 -69 0 -88 -20 -126 -46 -89 -188 -154 -393 -179 -49 -6 -199 -11 -332
-11 l-243 0 0 33 c0 56 36 180 76 258 66 131 203 244 345 284 83 23 296 15
370 -14z"/>
<path d="M22690 8441 c0 -11 -299 -1919 -304 -1943 -4 -17 26 -18 529 -18
l533 0 6 33 c3 17 8 56 12 85 l7 52 -437 0 c-240 0 -436 2 -436 5 0 3 27 172
60 377 33 204 60 375 60 380 0 4 164 8 364 8 l364 0 12 73 c6 39 13 78 15 85
4 9 -73 12 -361 12 l-365 0 6 33 c3 17 26 160 50 317 25 157 48 297 51 313 l6
27 418 0 418 0 11 75 c6 42 11 80 11 85 0 6 -193 10 -515 10 -302 0 -515 -4
-515 -9z"/>
<path d="M24185 8438 c-6 -20 -305 -1920 -305 -1940 0 -16 11 -18 88 -18 l87
0 130 820 c71 451 132 820 135 820 3 0 167 -368 365 -817 l360 -818 92 -3 91
-3 6 28 c7 33 306 1926 306 1936 0 4 -40 7 -89 7 l-88 0 -6 -37 c-4 -21 -61
-387 -128 -813 -67 -426 -124 -778 -128 -782 -3 -3 -166 362 -361 813 l-355
819 -98 0 c-69 0 -99 -4 -102 -12z"/>
<path d="M26185 8418 c-3 -18 -71 -449 -150 -958 -80 -509 -148 -937 -151
-952 l-6 -28 535 0 534 0 7 53 c4 28 9 67 12 85 l6 32 -436 0 c-355 0 -436 2
-436 13 0 14 106 682 116 730 l6 27 363 0 363 0 11 75 c6 42 11 80 11 85 0 6
-137 10 -360 10 -282 0 -360 3 -360 13 1 6 24 161 53 342 l53 330 420 3 421 2
6 53 c4 29 10 67 13 85 l7 32 -516 0 -516 0 -6 -32z"/>
<path d="M27680 8445 c0 -11 -300 -1920 -305 -1942 -5 -23 -4 -23 88 -23 l94
0 26 163 c14 89 45 285 68 435 l43 272 251 0 250 0 54 -232 c106 -467 122
-516 189 -581 64 -62 121 -81 237 -80 55 1 114 6 130 10 28 9 31 14 44 87 7
42 11 79 9 81 -2 3 -20 0 -39 -5 -19 -6 -64 -11 -101 -12 -109 -1 -165 50
-202 182 -20 72 -129 601 -124 605 1 1 28 15 58 30 237 118 362 304 362 540 0
259 -130 409 -398 461 -57 10 -159 14 -405 14 -181 0 -329 -2 -329 -5z m645
-165 c75 -11 166 -48 203 -83 70 -65 101 -180 82 -301 -26 -172 -136 -292
-320 -351 -45 -15 -103 -19 -313 -23 l-258 -4 6 24 c7 30 115 723 115 737 0
14 386 15 485 1z"/>
<path d="M31195 8428 c-2 -13 -70 -441 -150 -953 -80 -511 -148 -945 -151
-962 l-6 -33 96 0 c53 0 96 4 96 9 0 11 299 1919 304 1944 4 15 -5 17 -90 17
-89 0 -94 -1 -99 -22z"/>
<path d="M32356 8423 c-7 -16 -213 -455 -456 -978 -243 -522 -444 -954 -447
-958 -3 -4 39 -6 93 -5 l98 3 138 290 138 290 388 3 388 2 37 -234 c21 -129
43 -262 48 -295 l11 -61 89 0 c61 0 89 4 89 12 0 12 -306 1886 -316 1931 l-6
27 -139 0 -138 0 -15 -27z m224 -638 c44 -269 83 -502 86 -517 l6 -28 -336 0
c-185 0 -336 3 -336 6 0 4 109 245 242 536 177 388 244 525 250 512 4 -11 43
-239 88 -509z"/>
<path d="M21085 5935 c-50 -77 -52 -85 -23 -85 18 0 34 15 64 58 60 85 59 82
24 82 -26 0 -35 -8 -65 -55z"/>
<path d="M13657 5796 c-126 -35 -199 -169 -153 -279 21 -50 80 -95 203 -153
173 -81 203 -111 203 -204 0 -103 -66 -160 -185 -160 -75 0 -132 20 -192 66
l-32 24 -11 -21 c-15 -28 6 -50 78 -86 40 -20 75 -28 133 -31 151 -9 244 56
265 185 17 108 -50 192 -211 262 -125 55 -173 87 -196 131 -25 46 -24 86 4
135 56 99 208 122 320 49 37 -24 39 -25 53 -7 7 10 14 21 14 25 0 4 -28 21
-62 37 -75 37 -161 47 -231 27z"/>
<path d="M23620 5799 c-73 -14 -163 -64 -214 -119 -197 -210 -127 -579 131
-698 78 -35 206 -42 300 -17 60 16 183 87 183 105 0 4 -7 13 -15 20 -11 9 -23
5 -60 -20 -106 -73 -253 -94 -365 -51 -205 78 -297 349 -188 554 37 69 91 119
168 156 47 22 68 26 151 26 92 0 99 -1 180 -42 75 -37 86 -40 99 -27 13 14 12
18 -15 40 -54 44 -192 85 -274 83 -20 -1 -56 -5 -81 -10z"/>
<path d="M27690 5799 c-75 -15 -163 -64 -219 -124 -199 -210 -135 -558 126
-687 64 -31 73 -33 178 -33 104 0 114 2 176 32 64 32 140 99 179 158 37 55 63
155 63 235 0 210 -140 381 -343 420 -61 12 -97 11 -160 -1z m234 -72 c77 -35
140 -98 179 -176 30 -61 32 -72 32 -171 0 -93 -3 -112 -27 -162 -73 -157 -229
-242 -392 -217 -115 19 -220 102 -274 217 -24 51 -27 69 -27 167 0 101 2 114
28 163 53 101 136 170 236 199 68 19 179 10 245 -20z"/>
<path d="M30080 5795 c-209 -59 -332 -232 -317 -445 17 -233 192 -400 421
-400 332 0 530 384 346 669 -93 144 -290 220 -450 176z m209 -54 c182 -57 290
-244 251 -436 -52 -256 -308 -383 -531 -264 -101 54 -167 149 -190 273 -51
277 204 510 470 427z"/>
<path d="M14190 5375 l0 -425 30 0 30 0 0 425 0 425 -30 0 -30 0 0 -425z"/>
<path d="M17460 5375 l0 -425 35 0 35 0 0 425 0 425 -35 0 -35 0 0 -425z"/>
<path d="M23010 5375 l0 -425 30 0 30 0 0 425 0 425 -30 0 -30 0 0 -425z"/>
<path d="M12640 5492 c0 -357 4 -377 83 -456 62 -61 127 -86 226 -86 104 0
165 22 227 84 80 81 84 100 84 458 l0 298 -24 0 -25 0 -3 -312 c-3 -301 -4
-315 -25 -354 -46 -85 -120 -126 -233 -126 -113 -1 -187 40 -233 126 -21 39
-22 53 -25 354 l-3 312 -25 0 -24 0 0 -298z"/>
<path d="M14530 5375 l0 -415 25 0 26 0 -3 376 c-3 335 -1 373 12 355 8 -12
130 -181 270 -376 204 -283 260 -354 278 -355 l22 0 0 415 0 415 -26 0 -26 0
4 -374 3 -373 -24 36 c-14 20 -134 188 -269 374 -203 280 -248 337 -268 337
l-24 0 0 -415z"/>
<path d="M15615 5688 c-21 -57 -91 -244 -155 -415 l-118 -313 28 0 c26 0 29 7
80 145 l53 145 177 0 178 0 53 -145 c51 -138 55 -145 81 -145 l27 0 -28 78
c-35 94 -267 710 -276 735 -5 10 -18 17 -35 17 -26 0 -30 -6 -65 -102z m158
-213 c25 -66 50 -132 56 -147 l11 -28 -159 0 -159 0 69 182 c38 100 69 185 69
189 0 4 5 20 11 36 10 27 11 26 34 -42 12 -38 43 -124 68 -190z"/>
<path d="M16550 5375 l0 -415 30 0 30 0 0 195 0 195 260 0 260 0 0 -195 0
-195 30 0 30 0 0 415 0 415 -30 0 -30 0 0 -195 0 -195 -260 0 -260 0 0 195 0
195 -30 0 -30 0 0 -415z"/>
<path d="M17800 5375 l0 -415 160 0 c240 0 328 26 419 125 66 73 92 143 99
266 9 186 -59 322 -198 394 -69 36 -130 45 -307 45 l-173 0 0 -415z m412 345
c79 -30 148 -94 183 -172 26 -56 29 -75 29 -163 1 -55 -5 -119 -12 -142 -19
-63 -71 -134 -125 -170 -76 -51 -132 -63 -289 -63 l-138 0 0 371 0 372 148 -6
c117 -4 159 -9 204 -27z"/>
<path d="M18710 5375 l0 -415 25 0 25 0 0 185 0 185 123 0 122 0 98 -185 c94
-177 100 -185 129 -185 l30 0 -63 118 c-34 64 -79 148 -101 186 -21 38 -37 70
-36 71 2 1 21 12 43 23 22 11 48 28 57 39 33 36 58 107 58 164 0 102 -34 164
-114 204 -47 24 -59 25 -223 25 l-173 0 0 -415z m367 352 c18 -9 45 -34 60
-54 25 -32 28 -45 28 -107 0 -86 -26 -136 -86 -166 -33 -17 -59 -20 -179 -20
l-140 0 0 178 c0 98 3 182 8 186 4 5 68 6 142 4 100 -3 143 -9 167 -21z"/>
<path d="M19480 5375 l0 -415 240 0 240 0 0 25 0 25 -215 0 -215 0 0 175 0
175 165 0 c158 0 165 1 165 20 0 19 -7 20 -165 20 l-165 0 0 175 0 175 205 0
c198 0 205 1 205 20 0 19 -7 20 -230 20 l-230 0 0 -415z"/>
<path d="M20190 5375 l0 -415 225 0 225 0 0 25 0 25 -200 0 -200 0 0 390 0
390 -25 0 -25 0 0 -415z"/>
<path d="M20820 5375 l0 -415 240 0 240 0 0 25 0 25 -215 0 -215 0 0 175 0
175 165 0 c158 0 165 1 165 20 0 19 -7 20 -165 20 l-165 0 0 175 0 175 205 0
c198 0 205 1 205 20 0 19 -7 20 -230 20 l-230 0 0 -415z"/>
<path d="M21410 5770 c0 -19 7 -20 155 -20 l155 0 0 -395 0 -395 25 0 25 0 0
395 0 395 155 0 c148 0 155 1 155 20 0 20 -7 20 -335 20 -328 0 -335 0 -335
-20z"/>
<path d="M22250 5376 l0 -416 25 0 25 0 0 185 0 185 118 0 117 0 99 -185 c93
-173 101 -185 128 -185 15 0 28 2 28 4 0 3 -45 87 -99 188 l-100 183 44 22
c82 42 120 120 113 233 -3 57 -9 77 -33 111 -53 74 -83 84 -287 87 l-178 3 0
-415z m309 365 c82 -16 132 -72 139 -156 6 -73 -18 -136 -66 -173 -34 -26 -40
-27 -184 -30 l-148 -3 0 185 0 186 108 0 c59 -1 127 -5 151 -9z"/>
<path d="M24442 5763 c-6 -16 -72 -190 -146 -388 -74 -198 -139 -372 -145
-387 -10 -26 -9 -28 17 -28 26 0 30 7 81 145 l53 145 177 0 178 0 54 -145 c51
-139 55 -145 81 -145 l28 0 -19 48 c-10 26 -80 212 -156 415 -135 360 -138
367 -165 367 -21 0 -30 -7 -38 -27z m62 -99 c10 -31 44 -126 76 -210 l58 -154
-159 0 -158 0 26 68 c14 37 48 131 77 209 28 79 54 143 57 143 3 0 13 -25 23
-56z"/>
<path d="M25350 5375 l0 -415 163 0 c190 0 246 12 294 62 50 53 67 95 67 168
0 90 -39 161 -106 196 l-28 14 40 36 c48 44 63 88 58 169 -5 79 -38 134 -100
164 -40 19 -61 21 -216 21 l-172 0 0 -415z m366 349 c54 -40 69 -70 69 -139 0
-69 -15 -99 -69 -139 -24 -19 -45 -21 -172 -24 l-144 -3 0 159 c0 87 3 162 8
166 4 5 69 6 144 4 119 -3 141 -6 164 -24z m30 -380 c57 -42 69 -69 69 -154 0
-85 -12 -112 -69 -154 -24 -19 -44 -21 -187 -24 l-159 -3 0 181 0 181 159 -3
c143 -3 163 -5 187 -24z"/>
<path d="M26120 5375 l0 -415 240 0 240 0 0 25 0 25 -215 0 -215 0 0 175 0
175 165 0 c158 0 165 1 165 20 0 19 -7 20 -165 20 l-165 0 0 175 0 175 200 0
c193 0 200 1 200 20 0 19 -7 20 -225 20 l-225 0 0 -415z"/>
<path d="M26820 5375 l0 -415 225 0 225 0 0 25 0 25 -200 0 -200 0 0 390 0
390 -25 0 -25 0 0 -415z"/>
<path d="M28820 5778 c0 -7 -14 -177 -30 -378 -37 -456 -37 -440 -5 -440 23 0
25 4 26 43 0 23 13 191 27 372 l27 330 19 -50 c11 -27 70 -158 132 -290 149
-319 130 -319 277 -10 60 127 120 257 132 290 13 33 24 51 24 40 1 -43 52
-681 57 -702 3 -17 12 -23 29 -23 23 0 25 3 20 38 -3 20 -16 183 -30 362 -35
457 -31 432 -62 428 -24 -3 -38 -29 -149 -268 -68 -146 -131 -283 -140 -305
l-16 -40 -42 90 c-23 50 -87 188 -141 307 -95 206 -101 217 -127 218 -16 0
-28 -5 -28 -12z"/>
<path d="M30830 5375 l0 -415 25 0 26 0 -3 376 c-3 335 -1 373 12 355 8 -12
130 -180 270 -375 227 -316 258 -355 283 -355 l27 -1 0 415 0 415 -31 0 -31 0
4 -374 3 -373 -24 36 c-13 20 -134 188 -269 374 -203 279 -249 337 -268 337
l-24 0 0 -415z"/>
<path d="M31630 5770 c0 -19 7 -20 155 -20 l155 0 0 -395 0 -395 25 0 25 0 0
395 0 395 155 0 c148 0 155 1 155 20 0 20 -7 20 -335 20 -328 0 -335 0 -335
-20z"/>
<path d="M32470 5375 l0 -415 240 0 240 0 0 25 0 25 -215 0 -215 0 0 175 0
175 165 0 c158 0 165 1 165 20 0 19 -7 20 -165 20 l-165 0 0 175 0 175 200 0
c193 0 200 1 200 20 0 19 -7 20 -225 20 l-225 0 0 -415z"/>
</g>
</svg>
